<svg fill="currentColor" height="496pt" viewBox="0 0 496 496" width="496pt" xmlns="http://www.w3.org/2000/svg"><path d="m376 224h73.472656c3.3125 9.289062 12.113282 16 22.527344 16 13.230469 0 24-10.769531 24-24s-10.769531-24-24-24c-10.414062 0-19.214844 6.710938-22.527344 16h-73.472656v-16h24c2.128906 0 4.160156-.839844 5.65625-2.34375l29.65625-29.65625h14.160156c3.3125 9.289062 12.113282 16 22.527344 16 13.230469 0 24-10.769531 24-24s-10.769531-24-24-24c-10.414062 0-19.214844 6.710938-22.527344 16h-17.472656c-2.128906 0-4.160156.839844-5.65625 2.34375l-29.65625 29.65625h-20.6875v-8c0-2.121094-.839844-4.160156-2.34375-5.65625l-40-40c-1.496094-1.503906-3.527344-2.34375-5.65625-2.34375h-40v-10.457031l58.816406-22.054688c3.113282-1.167969 5.183594-4.152343 5.183594-7.488281v-33.472656c9.289062-3.3125 16-12.113282 16-22.527344 0-13.230469-10.769531-24-24-24s-24 10.769531-24 24c0 10.414062 6.710938 19.214844 16 22.527344v27.929687l-48 18v-13.929687c9.289062-3.3125 16-12.113282 16-22.527344 0-13.230469-10.769531-24-24-24s-24 10.769531-24 24c0 10.414062 6.710938 19.214844 16 22.527344v41.472656h-48v-73.472656c9.289062-3.3125 16-12.113282 16-22.527344 0-13.230469-10.769531-24-24-24s-24 10.769531-24 24c0 10.414062 6.710938 19.214844 16 22.527344v73.472656h-16v-24c0-2.121094-.839844-4.160156-2.34375-5.65625l-29.65625-29.65625v-14.160156c9.289062-3.3125 16-12.113282 16-22.527344 0-13.230469-10.769531-24-24-24s-24 10.769531-24 24c0 10.414062 6.710938 19.214844 16 22.527344v17.472656c0 2.121094.839844 4.160156 2.34375 5.65625l29.65625 29.65625v20.6875h-8c-2.128906 0-4.160156.839844-5.65625 2.34375l-40 40c-1.503906 1.496094-2.34375 3.535156-2.34375 5.65625v40h-10.457031l-22.054688-58.808594c-1.167969-3.121094-4.152343-5.191406-7.488281-5.191406h-33.472656c-3.3125-9.289062-12.113282-16-22.527344-16-13.230469 0-24 10.769531-24 24s10.769531 24 24 24c10.414062 0 19.214844-6.710938 22.527344-16h27.929687l18 48h-13.929687c-3.3125-9.289062-12.113282-16-22.527344-16-13.230469 0-24 10.769531-24 24s10.769531 24 24 24c10.414062 0 19.214844-6.710938 22.527344-16h41.472656v48h-73.472656c-3.3125-9.289062-12.113282-16-22.527344-16-13.230469 0-24 10.769531-24 24s10.769531 24 24 24c10.414062 0 19.214844-6.710938 22.527344-16h73.472656v16h-24c-2.128906 0-4.160156.839844-5.65625 2.34375l-29.65625 29.65625h-14.160156c-3.3125-9.289062-12.113282-16-22.527344-16-13.230469 0-24 10.769531-24 24s10.769531 24 24 24c10.414062 0 19.214844-6.710938 22.527344-16h17.472656c2.128906 0 4.160156-.839844 5.65625-2.34375l29.65625-29.65625h20.6875v8c0 2.128906.839844 4.160156 2.34375 5.65625l40 40c1.496094 1.503906 3.527344 2.34375 5.65625 2.34375h40v10.457031l-58.816406 22.054688c-3.113282 1.167969-5.183594 4.152343-5.183594 7.488281v33.472656c-9.289062 3.3125-16 12.113282-16 22.527344 0 13.230469 10.769531 24 24 24s24-10.769531 24-24c0-10.414062-6.710938-19.214844-16-22.527344v-27.929687l48-18v13.929687c-9.289062 3.3125-16 12.113282-16 22.527344 0 13.230469 10.769531 24 24 24s24-10.769531 24-24c0-10.414062-6.710938-19.214844-16-22.527344v-41.472656h48v73.472656c-9.289062 3.3125-16 12.113282-16 22.527344 0 13.230469 10.769531 24 24 24s24-10.769531 24-24c0-10.414062-6.710938-19.214844-16-22.527344v-73.472656h16v24c0 2.128906.839844 4.160156 2.34375 5.65625l29.65625 29.65625v14.160156c-9.289062 3.3125-16 12.113282-16 22.527344 0 13.230469 10.769531 24 24 24s24-10.769531 24-24c0-10.414062-6.710938-19.214844-16-22.527344v-17.472656c0-2.128906-.839844-4.160156-2.34375-5.65625l-29.65625-29.65625v-20.6875h8c2.128906 0 4.160156-.839844 5.65625-2.34375l40-40c1.503906-1.496094 2.34375-3.527344 2.34375-5.65625v-40h10.457031l22.054688 58.816406c1.167969 3.113282 4.152343 5.183594 7.488281 5.183594h33.472656c3.3125 9.289062 12.113282 16 22.527344 16 13.230469 0 24-10.769531 24-24s-10.769531-24-24-24c-10.414062 0-19.214844 6.710938-22.527344 16h-27.929687l-18-48h13.929687c3.3125 9.289062 12.113282 16 22.527344 16 13.230469 0 24-10.769531 24-24s-10.769531-24-24-24c-10.414062 0-19.214844 6.710938-22.527344 16h-41.472656zm96-16c4.414062 0 8 3.59375 8 8s-3.585938 8-8 8-8-3.59375-8-8 3.585938-8 8-8zm0-64c4.414062 0 8 3.59375 8 8s-3.585938 8-8 8-8-3.59375-8-8 3.585938-8 8-8zm-128-128c4.414062 0 8 3.59375 8 8s-3.585938 8-8 8-8-3.59375-8-8 3.585938-8 8-8zm-64 32c4.414062 0 8 3.59375 8 8s-3.585938 8-8 8-8-3.59375-8-8 3.585938-8 8-8zm-64-32c4.414062 0 8 3.59375 8 8s-3.585938 8-8 8-8-3.59375-8-8 3.585938-8 8-8zm-64 0c4.414062 0 8 3.59375 8 8s-3.585938 8-8 8-8-3.59375-8-8 3.585938-8 8-8zm-128 144c-4.414062 0-8-3.59375-8-8s3.585938-8 8-8 8 3.59375 8 8-3.585938 8-8 8zm32 64c-4.414062 0-8-3.59375-8-8s3.585938-8 8-8 8 3.59375 8 8-3.585938 8-8 8zm-32 64c-4.414062 0-8-3.585938-8-8s3.585938-8 8-8 8 3.585938 8 8-3.585938 8-8 8zm0 64c-4.414062 0-8-3.585938-8-8s3.585938-8 8-8 8 3.585938 8 8-3.585938 8-8 8zm128 128c-4.414062 0-8-3.585938-8-8s3.585938-8 8-8 8 3.585938 8 8-3.585938 8-8 8zm64-32c-4.414062 0-8-3.585938-8-8s3.585938-8 8-8 8 3.585938 8 8-3.585938 8-8 8zm64 32c-4.414062 0-8-3.585938-8-8s3.585938-8 8-8 8 3.585938 8 8-3.585938 8-8 8zm64 0c-4.414062 0-8-3.585938-8-8s3.585938-8 8-8 8 3.585938 8 8-3.585938 8-8 8zm128-144c4.414062 0 8 3.585938 8 8s-3.585938 8-8 8-8-3.585938-8-8 3.585938-8 8-8zm-32-64c4.414062 0 8 3.585938 8 8s-3.585938 8-8 8-8-3.585938-8-8 3.585938-8 8-8zm-80 52.6875-35.3125 35.3125h-153.375l-35.3125-35.3125v-153.375l35.3125-35.3125h153.375l35.3125 35.3125zm0 0"/><path d="m312 152h-128c-2.128906 0-4.160156.839844-5.65625 2.34375l-24 24c-1.503906 1.496094-2.34375 3.535156-2.34375 5.65625v128c0 2.128906.839844 4.160156 2.34375 5.65625l24 24c1.496094 1.503906 3.527344 2.34375 5.65625 2.34375h128c2.128906 0 4.160156-.839844 5.65625-2.34375l24-24c1.503906-1.496094 2.34375-3.527344 2.34375-5.65625v-128c0-2.121094-.839844-4.160156-2.34375-5.65625l-24-24c-1.496094-1.503906-3.527344-2.34375-5.65625-2.34375zm16 48h-44.6875l-13.65625-13.65625c-1.496094-1.503906-3.527344-2.34375-5.65625-2.34375h-64v16h60.6875l13.65625 13.65625c1.496094 1.503906 3.527344 2.34375 5.65625 2.34375h48v92.6875l-19.3125 19.3125h-121.375l-19.3125-19.3125v-12.6875h44.6875l13.65625 13.65625c1.496094 1.503906 3.527344 2.34375 5.65625 2.34375h64v-16h-60.6875l-13.65625-13.65625c-1.496094-1.503906-3.527344-2.34375-5.65625-2.34375h-48v-92.6875l19.3125-19.3125h121.375l19.3125 19.3125zm0 0"/></svg>