<svg id="svg" version="1.1" width="400" height="400" viewBox="0 0 400 400" xmlns="http://www.w3.org/2000/svg" xmlns:xlink="http://www.w3.org/1999/xlink" ><g id="svgg"><path id="path0" d="M112.000 115.120 C 112.000 193.547,112.109 216.749,112.480 217.120 C 112.844 217.484,119.831 217.600,141.480 217.600 L 170.000 217.600 170.000 302.400 C 170.000 358.667,169.865 387.200,169.600 387.200 C 169.380 387.200,169.200 387.740,169.200 388.400 C 169.200 389.422,169.352 389.600,170.229 389.600 C 171.236 389.600,172.400 388.800,172.400 388.108 C 172.400 387.506,173.386 385.606,173.700 385.603 C 173.865 385.601,174.000 385.240,174.000 384.800 C 174.000 384.360,174.164 384.000,174.365 384.000 C 174.566 384.000,174.851 383.280,175.000 382.400 C 175.149 381.520,175.434 380.800,175.635 380.800 C 175.836 380.800,176.000 380.440,176.000 380.000 C 176.000 379.560,176.180 379.200,176.400 379.200 C 176.620 379.200,176.800 378.840,176.800 378.400 C 176.800 377.960,176.980 377.600,177.200 377.600 C 177.420 377.600,177.600 377.240,177.600 376.800 C 177.600 376.360,177.780 376.000,178.000 376.000 C 178.220 376.000,178.400 375.730,178.400 375.400 C 178.400 375.070,178.580 374.800,178.800 374.800 C 179.020 374.800,179.200 374.440,179.200 374.000 C 179.200 373.560,179.380 373.200,179.600 373.200 C 179.820 373.200,180.000 372.840,180.000 372.400 C 180.000 371.960,180.180 371.600,180.400 371.600 C 180.620 371.600,180.800 371.240,180.800 370.800 C 180.800 370.360,180.980 370.000,181.200 370.000 C 181.420 370.000,181.600 369.640,181.600 369.200 C 181.600 368.760,181.780 368.400,182.000 368.400 C 182.220 368.400,182.400 368.040,182.400 367.600 C 182.400 367.160,182.580 366.800,182.800 366.800 C 183.020 366.800,183.200 366.440,183.200 366.000 C 183.200 365.560,183.380 365.200,183.600 365.200 C 183.820 365.200,184.000 364.840,184.000 364.400 C 184.000 363.960,184.180 363.600,184.400 363.600 C 184.620 363.600,184.800 363.240,184.800 362.800 C 184.800 362.360,184.980 362.000,185.200 362.000 C 185.420 362.000,185.600 361.640,185.600 361.200 C 185.600 360.760,185.780 360.400,186.000 360.400 C 186.220 360.400,186.400 360.040,186.400 359.600 C 186.400 359.160,186.546 358.800,186.725 358.800 C 186.904 358.800,187.298 358.170,187.600 357.400 C 187.902 356.630,188.296 356.000,188.475 356.000 C 188.654 356.000,188.800 355.640,188.800 355.200 C 188.800 354.760,188.980 354.400,189.200 354.400 C 189.420 354.400,189.600 354.166,189.600 353.880 C 189.600 353.181,190.533 351.207,190.865 351.203 C 191.011 351.201,191.251 350.480,191.400 349.600 C 191.549 348.720,191.834 348.000,192.035 348.000 C 192.236 348.000,192.400 347.640,192.400 347.200 C 192.400 346.760,192.580 346.400,192.800 346.400 C 193.020 346.400,193.200 346.040,193.200 345.600 C 193.200 345.160,193.380 344.800,193.600 344.800 C 193.820 344.800,194.000 344.440,194.000 344.000 C 194.000 343.560,194.180 343.200,194.400 343.200 C 194.620 343.200,194.800 342.840,194.800 342.400 C 194.800 341.960,194.980 341.600,195.200 341.600 C 195.420 341.600,195.600 341.330,195.600 341.000 C 195.600 340.670,195.780 340.400,196.000 340.400 C 196.220 340.400,196.400 340.040,196.400 339.600 C 196.400 339.160,196.580 338.800,196.800 338.800 C 197.020 338.800,197.200 338.440,197.200 338.000 C 197.200 337.560,197.380 337.200,197.600 337.200 C 197.820 337.200,198.000 336.840,198.000 336.400 C 198.000 335.960,198.180 335.600,198.400 335.600 C 198.620 335.600,198.800 335.240,198.800 334.800 C 198.800 334.360,198.980 334.000,199.200 334.000 C 199.420 334.000,199.600 333.640,199.600 333.200 C 199.600 332.760,199.780 332.400,200.000 332.400 C 200.220 332.400,200.400 332.040,200.400 331.600 C 200.400 331.160,200.580 330.800,200.800 330.800 C 201.020 330.800,201.200 330.440,201.200 330.000 C 201.200 329.560,201.380 329.200,201.600 329.200 C 201.820 329.200,202.000 328.840,202.000 328.400 C 202.000 327.960,202.180 327.600,202.400 327.600 C 202.620 327.600,202.800 327.240,202.800 326.800 C 202.800 326.360,202.935 325.999,203.100 325.999 C 203.265 325.998,203.850 325.008,204.400 323.800 C 204.950 322.592,205.535 321.602,205.700 321.601 C 205.865 321.601,206.000 321.366,206.000 321.080 C 206.000 320.344,206.941 318.407,207.300 318.403 C 207.465 318.401,207.600 318.040,207.600 317.600 C 207.600 317.160,207.764 316.800,207.965 316.800 C 208.166 316.800,208.451 316.080,208.600 315.200 C 208.749 314.320,209.034 313.600,209.235 313.600 C 209.436 313.600,209.600 313.240,209.600 312.800 C 209.600 312.360,209.780 312.000,210.000 312.000 C 210.220 312.000,210.400 311.640,210.400 311.200 C 210.400 310.760,210.580 310.400,210.800 310.400 C 211.020 310.400,211.200 310.040,211.200 309.600 C 211.200 309.160,211.380 308.800,211.600 308.800 C 211.820 308.800,212.000 308.530,212.000 308.200 C 212.000 307.870,212.180 307.600,212.400 307.600 C 212.620 307.600,212.800 307.240,212.800 306.800 C 212.800 306.360,212.980 306.000,213.200 306.000 C 213.420 306.000,213.600 305.640,213.600 305.200 C 213.600 304.760,213.780 304.400,214.000 304.400 C 214.220 304.400,214.400 304.040,214.400 303.600 C 214.400 303.160,214.580 302.800,214.800 302.800 C 215.020 302.800,215.200 302.440,215.200 302.000 C 215.200 301.560,215.380 301.200,215.600 301.200 C 215.820 301.200,216.000 300.840,216.000 300.400 C 216.000 299.960,216.180 299.600,216.400 299.600 C 216.620 299.600,216.800 299.240,216.800 298.800 C 216.800 298.360,216.980 298.000,217.200 298.000 C 217.420 298.000,217.600 297.640,217.600 297.200 C 217.600 296.760,217.780 296.400,218.000 296.400 C 218.220 296.400,218.400 296.040,218.400 295.600 C 218.400 295.160,218.580 294.800,218.800 294.800 C 219.020 294.800,219.200 294.440,219.200 294.000 C 219.200 293.560,219.380 293.200,219.600 293.200 C 219.820 293.200,220.000 292.840,220.000 292.400 C 220.000 291.960,220.146 291.600,220.325 291.600 C 220.504 291.600,220.898 290.970,221.200 290.200 C 221.502 289.430,221.896 288.800,222.075 288.800 C 222.254 288.800,222.400 288.566,222.400 288.280 C 222.400 287.544,223.341 285.607,223.700 285.603 C 223.865 285.601,224.000 285.240,224.000 284.800 C 224.000 284.360,224.164 284.000,224.365 284.000 C 224.566 284.000,224.851 283.280,225.000 282.400 C 225.149 281.520,225.434 280.800,225.635 280.800 C 225.836 280.800,226.000 280.440,226.000 280.000 C 226.000 279.560,226.180 279.200,226.400 279.200 C 226.620 279.200,226.800 278.840,226.800 278.400 C 226.800 277.960,226.980 277.600,227.200 277.600 C 227.420 277.600,227.600 277.240,227.600 276.800 C 227.600 276.360,227.780 276.000,228.000 276.000 C 228.220 276.000,228.400 275.730,228.400 275.400 C 228.400 275.070,228.580 274.800,228.800 274.800 C 229.020 274.800,229.200 274.440,229.200 274.000 C 229.200 273.560,229.380 273.200,229.600 273.200 C 229.820 273.200,230.000 272.840,230.000 272.400 C 230.000 271.960,230.180 271.600,230.400 271.600 C 230.620 271.600,230.800 271.240,230.800 270.800 C 230.800 270.360,230.980 270.000,231.200 270.000 C 231.420 270.000,231.600 269.640,231.600 269.200 C 231.600 268.760,231.780 268.400,232.000 268.400 C 232.220 268.400,232.400 268.040,232.400 267.600 C 232.400 267.160,232.580 266.800,232.800 266.800 C 233.020 266.800,233.200 266.440,233.200 266.000 C 233.200 265.560,233.380 265.200,233.600 265.200 C 233.820 265.200,234.000 264.840,234.000 264.400 C 234.000 263.960,234.180 263.600,234.400 263.600 C 234.620 263.600,234.800 263.240,234.800 262.800 C 234.800 262.360,234.980 262.000,235.200 262.000 C 235.420 262.000,235.600 261.640,235.600 261.200 C 235.600 260.760,235.780 260.400,236.000 260.400 C 236.220 260.400,236.400 260.040,236.400 259.600 C 236.400 259.160,236.546 258.800,236.725 258.800 C 236.904 258.800,237.298 258.170,237.600 257.400 C 237.902 256.630,238.296 256.000,238.475 256.000 C 238.654 256.000,238.800 255.640,238.800 255.200 C 238.800 254.760,238.980 254.400,239.200 254.400 C 239.420 254.400,239.600 254.166,239.600 253.880 C 239.600 253.181,240.533 251.207,240.865 251.203 C 241.011 251.201,241.251 250.480,241.400 249.600 C 241.549 248.720,241.834 248.000,242.035 248.000 C 242.236 248.000,242.400 247.640,242.400 247.200 C 242.400 246.760,242.580 246.400,242.800 246.400 C 243.020 246.400,243.200 246.040,243.200 245.600 C 243.200 245.160,243.380 244.800,243.600 244.800 C 243.820 244.800,244.000 244.440,244.000 244.000 C 244.000 243.560,244.180 243.200,244.400 243.200 C 244.620 243.200,244.800 242.840,244.800 242.400 C 244.800 241.960,244.980 241.600,245.200 241.600 C 245.420 241.600,245.600 241.330,245.600 241.000 C 245.600 240.670,245.780 240.400,246.000 240.400 C 246.220 240.400,246.400 240.040,246.400 239.600 C 246.400 239.160,246.580 238.800,246.800 238.800 C 247.020 238.800,247.200 238.440,247.200 238.000 C 247.200 237.560,247.380 237.200,247.600 237.200 C 247.820 237.200,248.000 236.840,248.000 236.400 C 248.000 235.960,248.180 235.600,248.400 235.600 C 248.620 235.600,248.800 235.240,248.800 234.800 C 248.800 234.360,248.980 234.000,249.200 234.000 C 249.420 234.000,249.600 233.640,249.600 233.200 C 249.600 232.760,249.780 232.400,250.000 232.400 C 250.220 232.400,250.400 232.040,250.400 231.600 C 250.400 231.160,250.580 230.800,250.800 230.800 C 251.020 230.800,251.200 230.440,251.200 230.000 C 251.200 229.560,251.380 229.200,251.600 229.200 C 251.820 229.200,252.000 228.840,252.000 228.400 C 252.000 227.960,252.180 227.600,252.400 227.600 C 252.620 227.600,252.800 227.255,252.800 226.833 C 252.800 226.412,252.937 226.007,253.105 225.933 C 253.273 225.860,254.393 223.820,255.594 221.400 C 256.796 218.980,257.902 216.910,258.053 216.799 C 258.203 216.689,258.453 215.924,258.608 215.099 C 258.762 214.275,259.049 213.600,259.245 213.600 C 259.440 213.600,259.600 213.240,259.600 212.800 C 259.600 212.360,259.780 212.000,260.000 212.000 C 260.220 212.000,260.400 211.640,260.400 211.200 C 260.400 210.760,260.580 210.400,260.800 210.400 C 261.020 210.400,261.200 210.040,261.200 209.600 C 261.200 209.160,261.380 208.800,261.600 208.800 C 261.820 208.800,262.000 208.530,262.000 208.200 C 262.000 207.870,262.180 207.600,262.400 207.600 C 262.620 207.600,262.800 207.240,262.800 206.800 C 262.800 206.360,262.980 206.000,263.200 206.000 C 263.420 206.000,263.600 205.640,263.600 205.200 C 263.600 204.760,263.780 204.400,264.000 204.400 C 264.220 204.400,264.400 204.040,264.400 203.600 C 264.400 203.160,264.580 202.800,264.800 202.800 C 265.020 202.800,265.200 202.440,265.200 202.000 C 265.200 201.560,265.380 201.200,265.600 201.200 C 265.820 201.200,266.000 200.840,266.000 200.400 C 266.000 199.960,266.180 199.600,266.400 199.600 C 266.620 199.600,266.800 199.240,266.800 198.800 C 266.800 198.360,266.980 198.000,267.200 198.000 C 267.420 198.000,267.600 197.640,267.600 197.200 C 267.600 196.760,267.780 196.400,268.000 196.400 C 268.220 196.400,268.400 196.040,268.400 195.600 C 268.400 195.160,268.580 194.800,268.800 194.800 C 269.020 194.800,269.200 194.440,269.200 194.000 C 269.200 193.560,269.380 193.200,269.600 193.200 C 269.820 193.200,270.000 192.855,270.000 192.433 C 270.000 192.012,270.141 191.607,270.313 191.533 C 270.789 191.330,275.200 182.257,275.200 181.480 C 275.200 181.106,275.380 180.800,275.600 180.800 C 275.820 180.800,276.000 180.440,276.000 180.000 C 276.000 179.560,276.180 179.200,276.400 179.200 C 276.620 179.200,276.800 178.840,276.800 178.400 C 276.800 177.960,276.980 177.600,277.200 177.600 C 277.420 177.600,277.600 177.240,277.600 176.800 C 277.600 176.360,277.780 176.000,278.000 176.000 C 278.220 176.000,278.400 175.730,278.400 175.400 C 278.400 175.070,278.580 174.800,278.800 174.800 C 279.020 174.800,279.200 174.440,279.200 174.000 C 279.200 173.560,279.380 173.200,279.600 173.200 C 279.820 173.200,280.000 172.840,280.000 172.400 C 280.000 171.960,280.180 171.600,280.400 171.600 C 280.620 171.600,280.800 171.240,280.800 170.800 C 280.800 170.360,280.980 170.000,281.200 170.000 C 281.420 170.000,281.600 169.640,281.600 169.200 C 281.600 168.760,281.780 168.400,282.000 168.400 C 282.220 168.400,282.400 168.040,282.400 167.600 C 282.400 167.160,282.580 166.800,282.800 166.800 C 283.020 166.800,283.200 166.440,283.200 166.000 C 283.200 165.560,283.380 165.200,283.600 165.200 C 283.820 165.200,284.000 164.840,284.000 164.400 C 284.000 163.960,284.180 163.600,284.400 163.600 C 284.620 163.600,284.800 163.240,284.800 162.800 C 284.800 162.360,284.980 162.000,285.200 162.000 C 285.420 162.000,285.600 161.640,285.600 161.200 C 285.600 160.760,285.780 160.400,286.000 160.400 C 286.220 160.400,286.400 159.770,286.400 159.000 L 286.400 157.600 258.069 157.600 L 229.739 157.600 229.915 156.400 C 230.012 155.740,230.250 155.200,230.445 155.200 C 230.640 155.200,230.800 154.840,230.800 154.400 C 230.800 153.960,230.980 153.600,231.200 153.600 C 231.420 153.600,231.600 153.060,231.600 152.400 C 231.600 151.740,231.780 151.200,232.000 151.200 C 232.220 151.200,232.400 150.840,232.400 150.400 C 232.400 149.960,232.580 149.600,232.800 149.600 C 233.020 149.600,233.200 149.060,233.200 148.400 C 233.200 147.740,233.380 147.200,233.600 147.200 C 233.820 147.200,234.000 146.840,234.000 146.400 C 234.000 145.960,234.180 145.600,234.400 145.600 C 234.620 145.600,234.800 145.060,234.800 144.400 C 234.800 143.740,234.980 143.200,235.200 143.200 C 235.420 143.200,235.600 142.840,235.600 142.400 C 235.600 141.960,235.780 141.600,236.000 141.600 C 236.220 141.600,236.400 141.328,236.400 140.995 C 236.400 140.662,236.608 139.987,236.862 139.495 C 237.858 137.569,238.000 137.183,238.000 136.405 C 238.000 135.962,238.180 135.600,238.400 135.600 C 238.620 135.600,238.800 135.240,238.800 134.800 C 238.800 134.360,238.980 134.000,239.200 134.000 C 239.420 134.000,239.600 133.460,239.600 132.800 C 239.600 132.140,239.780 131.600,240.000 131.600 C 240.220 131.600,240.400 131.351,240.400 131.046 C 240.400 130.741,240.669 129.976,240.998 129.346 C 241.326 128.716,241.596 127.705,241.598 127.100 C 241.599 126.495,241.780 126.000,242.000 126.000 C 242.220 126.000,242.400 125.550,242.400 125.000 C 242.400 124.450,242.580 124.000,242.800 124.000 C 243.020 124.000,243.200 123.640,243.200 123.200 C 243.200 122.760,243.380 122.400,243.600 122.400 C 243.820 122.400,244.000 121.961,244.000 121.424 C 244.000 120.887,244.180 120.336,244.400 120.200 C 244.620 120.064,244.800 119.603,244.800 119.176 C 244.800 118.749,244.980 118.400,245.200 118.400 C 245.420 118.400,245.600 117.860,245.600 117.200 C 245.600 116.540,245.780 116.000,246.000 116.000 C 246.220 116.000,246.400 115.640,246.400 115.200 C 246.400 114.760,246.580 114.400,246.800 114.400 C 247.020 114.400,247.200 113.860,247.200 113.200 C 247.200 112.540,247.380 112.000,247.600 112.000 C 247.820 112.000,248.000 111.640,248.000 111.200 C 248.000 110.760,248.180 110.400,248.400 110.400 C 248.620 110.400,248.800 110.051,248.800 109.624 C 248.800 109.197,248.980 108.736,249.200 108.600 C 249.420 108.464,249.600 107.913,249.600 107.376 C 249.600 106.839,249.780 106.400,250.000 106.400 C 250.220 106.400,250.400 105.950,250.400 105.400 C 250.400 104.850,250.580 104.400,250.800 104.400 C 251.020 104.400,251.200 104.040,251.200 103.600 C 251.200 103.160,251.380 102.800,251.600 102.800 C 251.820 102.800,252.000 102.260,252.000 101.600 C 252.000 100.940,252.180 100.400,252.400 100.400 C 252.620 100.400,252.800 100.040,252.800 99.600 C 252.800 99.160,252.947 98.800,253.128 98.800 C 253.308 98.800,253.704 97.889,254.007 96.775 C 254.310 95.661,254.703 94.660,254.879 94.551 C 255.056 94.442,255.200 93.913,255.200 93.376 C 255.200 92.839,255.335 92.399,255.500 92.397 C 255.840 92.393,256.800 90.472,256.800 89.795 C 256.800 89.551,257.144 88.638,257.564 87.768 C 257.985 86.898,258.455 85.514,258.609 84.693 C 258.763 83.872,259.049 83.200,259.245 83.200 C 259.440 83.200,259.600 82.660,259.600 82.000 C 259.600 81.340,259.780 80.800,260.000 80.800 C 260.220 80.800,260.400 80.440,260.400 80.000 C 260.400 79.560,260.580 79.200,260.800 79.200 C 261.020 79.200,261.200 78.851,261.200 78.424 C 261.200 77.997,261.380 77.536,261.600 77.400 C 261.820 77.264,262.000 76.713,262.000 76.176 C 262.000 75.639,262.180 75.200,262.400 75.200 C 262.620 75.200,262.800 74.750,262.800 74.200 C 262.800 73.650,262.980 73.200,263.200 73.200 C 263.420 73.200,263.600 72.840,263.600 72.400 C 263.600 71.960,263.780 71.600,264.000 71.600 C 264.220 71.600,264.400 71.060,264.400 70.400 C 264.400 69.740,264.580 69.200,264.800 69.200 C 265.020 69.200,265.200 68.840,265.200 68.400 C 265.200 67.960,265.380 67.600,265.600 67.600 C 265.820 67.600,266.000 67.251,266.000 66.824 C 266.000 66.397,266.180 65.936,266.400 65.800 C 266.620 65.664,266.800 65.113,266.800 64.576 C 266.800 64.039,266.980 63.600,267.200 63.600 C 267.420 63.600,267.600 63.060,267.600 62.400 C 267.600 61.740,267.780 61.200,268.000 61.200 C 268.220 61.200,268.400 60.840,268.400 60.400 C 268.400 59.960,268.580 59.600,268.800 59.600 C 269.020 59.600,269.200 59.245,269.200 58.812 C 269.200 58.379,269.560 57.383,270.000 56.600 C 270.440 55.817,270.800 54.821,270.800 54.388 C 270.800 53.955,270.980 53.600,271.200 53.600 C 271.420 53.600,271.600 53.251,271.600 52.824 C 271.600 52.397,271.780 51.936,272.000 51.800 C 272.220 51.664,272.400 51.113,272.400 50.576 C 272.400 50.039,272.580 49.600,272.800 49.600 C 273.020 49.600,273.200 49.328,273.200 48.995 C 273.200 48.662,273.380 48.032,273.600 47.595 C 273.820 47.158,274.177 46.448,274.392 46.017 C 274.608 45.587,274.906 44.462,275.053 43.517 C 275.201 42.573,275.429 41.710,275.561 41.600 C 276.092 41.156,277.600 37.874,277.600 37.162 C 277.600 36.743,277.780 36.400,278.000 36.400 C 278.220 36.400,278.400 35.961,278.400 35.424 C 278.400 34.887,278.580 34.336,278.800 34.200 C 279.020 34.064,279.200 33.603,279.200 33.176 C 279.200 32.749,279.380 32.400,279.600 32.400 C 279.820 32.400,280.000 31.860,280.000 31.200 C 280.000 30.540,280.180 30.000,280.400 30.000 C 280.620 30.000,280.800 29.640,280.800 29.200 C 280.800 28.760,280.980 28.400,281.200 28.400 C 281.420 28.400,281.600 28.040,281.600 27.600 C 281.600 27.160,281.780 26.800,282.000 26.800 C 282.220 26.800,282.400 26.361,282.400 25.824 C 282.400 25.287,282.580 24.736,282.800 24.600 C 283.020 24.464,283.200 23.913,283.200 23.376 C 283.200 22.839,283.380 22.400,283.600 22.400 C 283.820 22.400,284.000 22.040,284.000 21.600 C 284.000 21.160,284.180 20.800,284.400 20.800 C 284.620 20.800,284.800 20.260,284.800 19.600 C 284.800 18.940,284.980 18.400,285.200 18.400 C 285.420 18.400,285.600 18.051,285.600 17.624 C 285.600 17.197,285.780 16.736,286.000 16.600 C 286.220 16.464,286.400 15.733,286.400 14.976 L 286.400 13.600 199.200 13.600 L 112.000 13.600 112.000 115.120 " stroke="none" fill="#020814" fill-rule="evenodd"></path><path id="path1" d="" stroke="none" fill="#020814" fill-rule="evenodd"></path><path id="path2" d="" stroke="none" fill="#020814" fill-rule="evenodd"></path><path id="path3" d="" stroke="none" fill="#020814" fill-rule="evenodd"></path><path id="path4" d="" stroke="none" fill="#020814" fill-rule="evenodd"></path></g></svg>